<?xml version="1.0" encoding="UTF-8"?>
<!DOCTYPE svg PUBLIC "-//W3C//DTD SVG 1.1//EN" "http://www.w3.org/Graphics/SVG/1.1/DTD/svg11.dtd">
<!-- Creator: CorelDRAW -->
<svg xmlns="http://www.w3.org/2000/svg" xml:space="preserve" width="145.198mm" height="22.4208mm" version="1.1" style="shape-rendering:geometricPrecision; text-rendering:geometricPrecision; image-rendering:optimizeQuality; fill-rule:evenodd; clip-rule:evenodd"
viewBox="0 0 25611.66 3954.83"
 xmlns:xlink="http://www.w3.org/1999/xlink">
 <defs>
  <style type="text/css">
   <![CDATA[
    .fil1 {fill:#191E55}
    .fil0 {fill:#F05F37}
    .fil2 {fill:#191E55;fill-rule:nonzero}
    .fil3 {fill:#F05F37;fill-rule:nonzero}
   ]]>
  </style>
 </defs>
 <g id="Camada_x0020_1">
  <metadata id="CorelCorpID_0Corel-Layer"/>
  <path class="fil0" d="M1949.4 875.76l211.3 0 0 151.56c97.42,5.61 195.64,34.87 295.07,88.2l0 358.04c-104.23,-101.44 -203.26,-152.35 -297.08,-152.35 -44.5,0 -86.2,14.02 -124.29,42.09 -38.08,28.06 -56.94,66.96 -56.94,116.28 0,36.88 13.23,68.55 40.09,95 26.07,27.68 85.39,62.14 178.42,103.45 83.79,36.88 149.54,72.16 196.45,106.24 46.9,34.08 86.2,80.98 117.86,140.32 31.68,59.74 47.71,125.48 47.71,197.66 0,111.06 -32.88,212.48 -98.62,303.5 -66.16,91 -165.58,154.75 -298.68,190.84l0 173.99 -211.3 0 0 -153.95c-99.43,-2.4 -214.49,-34.87 -345.2,-97.42l0 -368.85c121.48,115.06 238.96,172.4 352.41,172.4 63.36,0 116.28,-18.86 158.36,-56.94 42.1,-38.08 63.36,-85.8 63.36,-143.93 0,-49.32 -17.25,-89.39 -51.72,-120.67 -34.08,-31.68 -94.63,-65.76 -180.82,-102.24 -111.87,-48.51 -196.85,-107.46 -254.59,-176.41 -58.95,-68.16 -88.21,-155.56 -88.21,-261.8 0,-105.85 28.88,-195.25 87,-267.81 57.73,-72.57 144.34,-129.1 259.4,-169.19l0 -167.99z"/>
  <path class="fil0" d="M-0 3592.13l995.29 -995c239.13,335.13 631.18,553.62 1074.27,553.62 728.42,0 1318.91,-590.5 1318.91,-1318.91 0,-252.5 -70.98,-488.43 -194.05,-688.91l370.03 -370.03c212.22,298.96 336.94,664.39 336.94,1058.95 0,1011.69 -820.15,1831.82 -1831.84,1831.82 -399.65,0 -769.38,-128.01 -1070.5,-345.21l-636.38 636.38 -362.68 -362.7z"/>
  <path class="fil1" d="M2069.56 0c432.1,0 829.21,149.7 1142.45,399.97l-365.83 365.83c-217.86,-158.98 -486.26,-252.89 -776.61,-252.89 -728.42,0 -1318.93,590.5 -1318.93,1318.93 0,88.67 8.82,175.28 25.51,259.05l-411.7 411.71c-81.79,-207.74 -126.72,-433.99 -126.72,-670.76 0,-1011.69 820.15,-1831.84 1831.84,-1831.84z"/>
  <path class="fil2" d="M4828.35 1977.4c0,-138.48 24.24,-263.56 72.71,-375.22 48.47,-111.66 114.25,-207.29 197.35,-286.92 83.1,-79.64 180.04,-140.65 290.83,-183.08 110.79,-42.4 228.5,-63.61 353.13,-63.61 98.67,0 186.53,9.51 263.56,28.56 77.03,19.03 143.25,40.68 198.65,64.91 64.05,27.69 119.43,58 166.18,90.88l-272.65 480.38c-27.69,-20.76 -58,-40.68 -90.88,-59.73 -29.44,-13.85 -64.49,-27.25 -105.16,-40.23 -40.69,-12.98 -87,-19.47 -138.93,-19.47 -53.68,0 -103.01,9.51 -148.01,28.56 -45.01,19.05 -84.39,45.01 -118.15,77.89 -33.76,32.9 -60.17,71.42 -79.2,115.55 -19.05,44.15 -28.56,91.32 -28.56,141.52 0,50.2 9.95,97.37 29.85,141.52 19.91,44.15 47.18,82.66 81.81,115.55 34.61,32.9 75.3,58.86 122.03,77.89 46.74,19.05 97.81,28.56 153.21,28.56 55.39,0 104.72,-6.91 148.01,-20.76 43.27,-13.85 79.62,-29.44 109.06,-46.74 34.61,-19.05 64.91,-41.54 90.88,-67.5l272.65 480.37c-46.74,38.08 -102.13,71.84 -166.18,101.28 -55.4,24.24 -122.04,46.73 -199.96,67.5 -77.89,20.78 -167.04,31.17 -267.44,31.17 -135.03,0 -259.67,-22.08 -373.91,-66.22 -114.27,-44.15 -212.94,-106.03 -296.02,-185.67 -83.1,-79.62 -148.01,-175.26 -194.75,-286.94 -46.74,-111.66 -70.12,-234.99 -70.12,-370.02zm1438.54 0c0,-124.64 23.81,-242.36 71.4,-353.13 47.61,-110.79 112.54,-207.31 194.75,-289.53 82.23,-82.23 178.74,-147.15 289.53,-194.75 110.79,-47.61 228.51,-71.4 353.15,-71.4 124.64,0 242.34,23.8 353.13,71.4 110.79,47.61 207.31,112.52 289.53,194.75 82.23,82.22 147.15,178.74 194.75,289.53 47.61,110.77 71.4,228.5 71.4,353.13 0,124.64 -23.8,242.36 -71.4,353.15 -47.61,110.79 -112.52,207.29 -194.75,289.53 -82.22,82.22 -178.74,147.13 -289.53,194.74 -110.79,47.61 -228.5,71.42 -353.13,71.42 -124.64,0 -242.36,-23.81 -353.15,-71.42 -110.79,-47.61 -207.29,-112.52 -289.53,-194.74 -82.22,-82.23 -147.15,-178.74 -194.75,-289.53 -47.59,-110.79 -71.4,-228.51 -71.4,-353.15zm545.29 0c0,50.2 9.53,97.37 28.58,141.52 19.03,44.15 45,82.66 77.89,115.55 32.9,32.9 71.4,58.86 115.55,77.89 44.13,19.05 91.32,28.56 141.52,28.56 50.2,0 97.37,-9.51 141.52,-28.56 44.13,-19.03 82.66,-45 115.54,-77.89 32.9,-32.9 58.86,-71.4 77.91,-115.55 19.03,-44.15 28.56,-91.32 28.56,-141.52 0,-50.2 -9.53,-97.37 -28.56,-141.52 -19.05,-44.13 -45.01,-82.66 -77.91,-115.55 -32.88,-32.88 -71.4,-58.84 -115.54,-77.89 -44.15,-19.05 -91.32,-28.56 -141.52,-28.56 -50.2,0 -97.39,9.51 -141.52,28.56 -44.15,19.05 -82.66,45.01 -115.55,77.89 -32.9,32.9 -58.86,71.42 -77.89,115.55 -19.05,44.15 -28.58,91.32 -28.58,141.52zm1415.17 -867.28l457.01 0 451.83 664.75 449.21 -664.75 457.01 0 0 1731.96 -553.09 0 0 -623.19 -353.13 519.33 -355.75 -519.33 0 623.19 -553.09 0 0 -1731.96zm3344.48 659.54c0,119.45 -20.76,221.16 -62.32,305.1 -41.54,83.96 -98.23,151.91 -170.08,203.84 -71.84,51.95 -155.81,90.03 -251.87,114.27 -96.08,24.24 -199.52,36.35 -310.31,36.35l0 412.86 -553.09 0 0 -1731.96 553.09 0c110.79,0 214.23,12.12 310.31,36.35 96.06,24.24 180.02,62.32 251.87,114.25 71.84,51.93 128.54,119.88 170.08,203.84 41.56,83.96 62.32,185.67 62.32,305.1zm-794.57 192.16l23.37 0c72.71,0 125.08,-16.88 157.09,-50.64 32.03,-33.76 48.05,-80.93 48.05,-141.52 0,-60.59 -16.02,-107.76 -48.05,-141.52 -32.01,-33.74 -84.39,-50.62 -157.09,-50.62l-23.37 0 0 384.3zm1230.82 -851.7l415.47 0 656.95 1731.96 -545.29 0 -57.13 -155.81 -524.52 0 -57.13 155.81 -545.29 0 656.95 -1731.96zm324.58 1194.47l-116.84 -303.82 -116.86 303.82 233.7 0zm786.77 -1194.47l597.24 0c110.79,0 213.34,14.71 307.7,44.13 94.35,29.44 176.14,72.71 245.38,129.84 69.25,57.13 123.35,127.67 162.3,211.63 38.95,83.94 58.42,180.47 58.42,289.53 0,86.56 -12.12,160.11 -36.35,220.7 -24.24,60.59 -51.07,110.79 -80.49,150.62 -34.63,45 -73.57,83.08 -116.86,114.25l324.59 571.26 -649.17 0 -259.67 -438.83 0 438.83 -553.09 0 0 -1731.96zm553.09 851.7l28.56 0c65.79,0 121.62,-14.71 167.48,-44.15 45.88,-29.42 68.83,-78.76 68.83,-148.01 0,-69.23 -22.95,-118.57 -68.83,-148.01 -45.86,-29.42 -101.69,-44.13 -167.48,-44.13l-28.56 0 0 384.3zm960.75 -851.7l1020.49 0 0 454.42 -467.4 0 0 192.14 459.6 0 0 431.05 -459.6 0 0 199.94 485.57 0 0 454.42 -1038.66 0 0 -1731.96z"/>
  <path class="fil3" d="M16031.52 2361.7c0,-105.59 23.81,-194.31 71.4,-266.16 47.61,-71.84 110.37,-132.86 188.26,-183.06 -39.81,-43.29 -72.71,-93.49 -98.67,-150.6 -25.96,-57.13 -38.95,-119.45 -38.95,-186.96 0,-72.71 13.85,-140.23 41.54,-202.55 27.71,-62.32 65.79,-115.98 114.27,-160.99 48.47,-45.01 105.59,-80.06 171.36,-105.16 65.79,-25.1 136.77,-37.64 212.94,-37.64 84.83,0 161.86,12.98 231.09,38.95 69.25,25.96 128.54,61.88 177.87,107.76 49.34,45.88 87,100.4 112.96,163.58 25.96,63.18 38.95,131.99 38.95,206.43 0,88.28 -23.37,165.33 -70.12,231.11 -46.73,65.78 -102.99,122.91 -168.77,171.38l236.29 197.35c20.78,-20.78 39.39,-40.68 55.83,-59.73 16.44,-19.05 30.73,-35.49 42.85,-49.34 13.85,-17.3 25.96,-32.9 36.35,-46.74l347.95 296.02c-74.44,103.88 -161.86,197.35 -262.26,280.44 -43.29,34.63 -91.32,68.81 -144.11,102.57 -52.81,33.74 -110.79,63.61 -173.99,89.57 -63.18,25.98 -131.13,47.18 -203.84,63.62 -72.69,16.44 -149.74,24.68 -231.09,24.68 -119.45,0 -222.45,-13.42 -309,-40.25 -86.56,-26.83 -157.96,-63.62 -214.23,-110.37 -56.27,-46.73 -97.81,-102.13 -124.64,-166.18 -26.83,-64.05 -40.25,-133.3 -40.25,-207.74zm701.1 85.69c25.96,0 52.37,-2.17 79.2,-6.49 26.83,-4.32 52.35,-10.81 76.59,-19.47l-251.87 -212.92c-43.27,32.88 -64.91,71.84 -64.91,116.84 0,41.56 16.44,72.28 49.34,92.18 32.88,19.91 70.1,29.86 111.66,29.86zm-127.23 -880.26c0,24.24 5.63,47.17 16.86,68.81 11.25,21.64 33.34,47.17 66.22,76.61 39.83,-24.24 68.39,-47.18 85.69,-68.81 17.32,-21.64 25.96,-47.18 25.96,-76.61 0,-29.42 -8.64,-52.79 -25.96,-70.12 -17.3,-17.3 -40.68,-25.96 -70.1,-25.96 -29.44,0 -53.23,9.08 -71.42,27.27 -18.17,18.17 -27.25,41.12 -27.25,68.81z"/>
  <path class="fil2" d="M19442.04 1769.66c0,119.45 -20.76,221.16 -62.32,305.1 -41.54,83.96 -98.23,151.91 -170.08,203.84 -71.84,51.95 -155.81,90.03 -251.87,114.27 -96.08,24.24 -199.52,36.35 -310.31,36.35l0 412.86 -553.09 0 0 -1731.96 553.09 0c110.79,0 214.23,12.12 310.31,36.35 96.06,24.24 180.02,62.32 251.87,114.25 71.84,51.93 128.54,119.88 170.08,203.84 41.56,83.96 62.32,185.67 62.32,305.1zm-794.57 192.16l23.37 0c72.71,0 125.08,-16.88 157.09,-50.64 32.03,-33.76 48.05,-80.93 48.05,-141.52 0,-60.59 -16.02,-107.76 -48.05,-141.52 -32.01,-33.74 -84.39,-50.62 -157.09,-50.62l-23.37 0 0 384.3zm885.45 15.58c0,-124.64 23.81,-242.36 71.4,-353.13 47.61,-110.79 112.54,-207.31 194.75,-289.53 82.23,-82.23 178.74,-147.15 289.53,-194.75 110.79,-47.61 228.51,-71.4 353.15,-71.4 124.64,0 242.34,23.8 353.13,71.4 110.79,47.61 207.31,112.52 289.53,194.75 82.23,82.22 147.15,178.74 194.75,289.53 47.61,110.77 71.4,228.5 71.4,353.13 0,124.64 -23.8,242.36 -71.4,353.15 -47.61,110.79 -112.52,207.29 -194.75,289.53 -82.22,82.22 -178.74,147.13 -289.53,194.74 -110.79,47.61 -228.5,71.42 -353.13,71.42 -124.64,0 -242.36,-23.81 -353.15,-71.42 -110.79,-47.61 -207.29,-112.52 -289.53,-194.74 -82.22,-82.23 -147.15,-178.74 -194.75,-289.53 -47.59,-110.79 -71.4,-228.51 -71.4,-353.15zm545.29 0c0,50.2 9.53,97.37 28.58,141.52 19.03,44.15 45,82.66 77.89,115.55 32.9,32.9 71.4,58.86 115.55,77.89 44.13,19.05 91.32,28.56 141.52,28.56 50.2,0 97.37,-9.51 141.52,-28.56 44.13,-19.03 82.66,-45 115.54,-77.89 32.9,-32.9 58.86,-71.4 77.91,-115.55 19.03,-44.15 28.56,-91.32 28.56,-141.52 0,-50.2 -9.53,-97.37 -28.56,-141.52 -19.05,-44.13 -45.01,-82.66 -77.91,-115.55 -32.88,-32.88 -71.4,-58.84 -115.54,-77.89 -44.15,-19.05 -91.32,-28.56 -141.52,-28.56 -50.2,0 -97.39,9.51 -141.52,28.56 -44.15,19.05 -82.66,45.01 -115.55,77.89 -32.9,32.9 -58.86,71.42 -77.89,115.55 -19.05,44.15 -28.58,91.32 -28.58,141.52zm2124.06 908.84c-109.06,0 -207.74,-13.86 -296.02,-41.56 -88.28,-27.69 -163.58,-69.23 -225.92,-124.64 -62.32,-55.39 -110.35,-125.5 -144.11,-210.33 -33.74,-84.83 -50.62,-184.36 -50.62,-298.61l0 -1100.98 553.07 0 0 1077.61c0,60.59 12.56,106.89 37.66,138.93 25.1,32.01 67.08,48.03 125.94,48.03 58.84,0 100.83,-16.02 125.93,-48.03 25.1,-32.03 37.66,-78.34 37.66,-138.93l0 -1077.61 555.68 0 0 1100.98c0,114.25 -16.88,213.79 -50.64,298.61 -33.74,84.83 -82.22,154.94 -145.42,210.33 -63.18,55.4 -138.91,96.94 -227.19,124.64 -88.3,27.69 -186.96,41.56 -296.02,41.56zm2240.91 -1116.57c0,119.45 -20.76,221.16 -62.32,305.1 -41.54,83.96 -98.23,151.91 -170.08,203.84 -71.84,51.95 -155.81,90.03 -251.87,114.27 -96.08,24.24 -199.52,36.35 -310.31,36.35l0 412.86 -553.09 0 0 -1731.96 553.09 0c110.79,0 214.23,12.12 310.31,36.35 96.06,24.24 180.02,62.32 251.87,114.25 71.84,51.93 128.54,119.88 170.08,203.84 41.56,83.96 62.32,185.67 62.32,305.1zm-794.57 192.16l23.37 0c72.71,0 125.08,-16.88 157.09,-50.64 32.03,-33.76 48.05,-80.93 48.05,-141.52 0,-60.59 -16.02,-107.76 -48.05,-141.52 -32.01,-33.74 -84.39,-50.62 -157.09,-50.62l-23.37 0 0 384.3zm924.39 -851.7l1020.49 0 0 454.42 -467.4 0 0 192.14 459.6 0 0 431.05 -459.6 0 0 199.94 485.57 0 0 454.42 -1038.66 0 0 -1731.96z"/>
 </g>
</svg>
