<?xml version="1.0" encoding="UTF-8"?>
<!DOCTYPE svg PUBLIC "-//W3C//DTD SVG 1.1//EN" "http://www.w3.org/Graphics/SVG/1.1/DTD/svg11.dtd">
<!-- Creator: CorelDRAW -->
<svg xmlns="http://www.w3.org/2000/svg" xml:space="preserve" width="92.5519mm" height="27.7479mm" version="1.1" style="shape-rendering:geometricPrecision; text-rendering:geometricPrecision; image-rendering:optimizeQuality; fill-rule:evenodd; clip-rule:evenodd"
viewBox="0 0 158322.01 47466.38"
 xmlns:xlink="http://www.w3.org/1999/xlink">
 <defs>
  <style type="text/css">
   <![CDATA[
    .fil1 {fill:#191E55}
    .fil0 {fill:#F05F37}
    .fil2 {fill:#191E55;fill-rule:nonzero}
    .fil3 {fill:#F05F37;fill-rule:nonzero}
   ]]>
  </style>
 </defs>
 <g id="Camada_x0020_1">
  <metadata id="CorelCorpID_0Corel-Layer"/>
  <g id="_105553339568736">
   <path class="fil0" d="M23396.96 10511.13l2536.01 0 0 1818.91c1169.22,67.4 2348.18,418.59 3541.52,1058.54l0 4297.1c-1251.15,-1217.46 -2439.7,-1828.49 -3565.64,-1828.49 -534.06,0 -1034.59,168.33 -1491.67,505.15 -457.08,336.82 -683.4,803.65 -683.4,1395.53 0,442.71 158.92,822.81 481.2,1140.48 312.87,332.03 1025.01,745.83 2141.37,1241.4 1005.68,442.71 1794.79,866.09 2357.93,1275.1 562.97,409.01 1034.42,971.98 1414.69,1684.29 380.1,716.92 572.55,1506.04 572.55,2372.3 0,1332.92 -394.64,2550.21 -1183.76,3642.61 -793.9,1092.24 -1987.24,1857.4 -3584.8,2290.36l0 2088.51 -2536.01 0 0 -1847.82c-1193.34,-28.91 -2574.33,-418.59 -4142.97,-1169.39l0 -4426.94c1457.97,1380.99 2867.87,2069.18 4229.7,2069.18 760.2,0 1395.36,-226.15 1900.68,-683.4 505.32,-457.08 760.2,-1029.63 760.2,-1727.39 0,-591.88 -206.82,-1073.08 -620.62,-1448.39 -409.01,-380.1 -1135.69,-789.11 -2170.28,-1227.03 -1342.5,-582.3 -2362.55,-1289.64 -3055.53,-2117.25 -707.35,-818.02 -1058.71,-1866.98 -1058.71,-3142.26 0,-1270.31 346.57,-2343.39 1044.34,-3214.27 692.8,-871.05 1732.18,-1549.49 3113.17,-2030.69l0 -2016.15z"/>
   <path class="fil0" d="M-0 43113.34l11945.5 -11942.25c2870.09,4022.2 7575.69,6644.6 12893.7,6644.6 8742.51,0 15829.82,-7087.14 15829.82,-15829.82 0,-3030.55 -852.06,-5861.99 -2329.19,-8268.33l4441.31 -4441.14c2546.79,3588.22 4043.93,7974.1 4043.93,12709.46 0,12142.56 -9843.48,21985.87 -21985.87,21985.87 -4796.61,0 -9234.32,-1536.32 -12848.37,-4143.32l-7637.79 7637.96 -4353.04 -4353.04z"/>
   <path class="fil1" d="M24839.2 0c5186.12,0 9952.1,1796.85 13711.72,4800.54l-4390.84 4390.84c-2614.87,-1908.38 -5835.98,-3035.34 -9320.88,-3035.34 -8742.69,0 -15829.99,7087.31 -15829.99,15829.82 0,1064.35 105.89,2103.9 306.2,3109.24l-4941.32 4941.32c-981.56,-2493.07 -1520.92,-5208.87 -1520.92,-8050.56 0,-12142.39 9843.48,-21985.87 21986.04,-21985.87z"/>
  </g>
  <g id="_105553339570144">
   <path class="fil2" d="M53161.58 13374.9c0,-1343.02 235.04,-2556.02 705.12,-3638.85 470.08,-1082.83 1107.97,-2010.33 1913.85,-2782.51 805.88,-772.35 1746.04,-1364.06 2820.49,-1775.46 1074.45,-411.24 2215.95,-616.85 3424.68,-616.85 956.93,0 1808.99,92.2 2556.02,276.95 747.03,184.58 1389.2,394.47 1926.51,629.51 621.13,268.57 1158.27,562.45 1611.58,881.32l-2644.12 4658.73c-268.57,-201.34 -562.45,-394.47 -881.32,-579.22 -285.5,-134.28 -625.41,-264.29 -1019.88,-390.19 -394.64,-125.9 -843.68,-188.85 -1347.29,-188.85 -520.54,0 -999.01,92.2 -1435.39,276.95 -436.55,184.75 -818.37,436.55 -1145.78,755.41 -327.41,319.03 -583.5,692.63 -768.07,1120.63 -184.75,428.17 -276.95,885.59 -276.95,1372.44 0,486.85 96.48,944.27 289.44,1372.44 193.13,428.17 457.59,801.6 793.39,1120.63 335.63,319.03 730.27,570.84 1183.41,755.41 453.32,184.75 948.54,276.95 1485.85,276.95 537.14,0 1015.6,-67.06 1435.39,-201.34 419.62,-134.28 772.18,-285.5 1057.68,-453.32 335.63,-184.75 629.51,-402.85 881.32,-654.66l2644.12 4658.56c-453.32,369.32 -990.45,696.74 -1611.58,982.24 -537.31,235.04 -1183.58,453.15 -1939.17,654.66 -755.41,201.51 -1619.97,302.27 -2593.66,302.27 -1309.49,0 -2518.22,-214.17 -3626.19,-642.17 -1108.15,-428.17 -2065.07,-1028.26 -2870.78,-1800.61 -805.88,-772.18 -1435.39,-1699.68 -1888.71,-2782.68 -453.32,-1082.83 -679.98,-2278.9 -679.98,-3588.39zm13950.87 0c0,-1208.73 230.93,-2350.4 692.46,-3424.68 461.7,-1074.45 1091.38,-2010.5 1888.71,-2807.83 797.5,-797.5 1733.38,-1427.01 2807.83,-1888.71 1074.45,-461.7 2216.12,-692.46 3424.85,-692.46 1208.73,0 2350.23,230.76 3424.68,692.46 1074.45,461.7 2010.5,1091.21 2807.83,1888.71 797.5,797.32 1427.01,1733.38 1888.71,2807.83 461.7,1074.28 692.46,2215.95 692.46,3424.68 0,1208.73 -230.76,2350.4 -692.46,3424.85 -461.7,1074.45 -1091.21,2010.33 -1888.71,2807.83 -797.32,797.32 -1733.38,1426.84 -2807.83,1888.53 -1074.45,461.7 -2215.95,692.63 -3424.68,692.63 -1208.73,0 -2350.4,-230.93 -3424.85,-692.63 -1074.45,-461.7 -2010.33,-1091.21 -2807.83,-1888.53 -797.32,-797.5 -1427.01,-1733.38 -1888.71,-2807.83 -461.53,-1074.45 -692.46,-2216.12 -692.46,-3424.85zm5288.24 0c0,486.85 92.37,944.27 277.12,1372.44 184.58,428.17 436.38,801.6 755.41,1120.63 319.03,319.03 692.46,570.84 1120.63,755.41 428,184.75 885.59,276.95 1372.44,276.95 486.85,0 944.27,-92.2 1372.44,-276.95 428,-184.58 801.6,-436.38 1120.46,-755.41 319.03,-319.03 570.84,-692.46 755.59,-1120.63 184.58,-428.17 276.95,-885.59 276.95,-1372.44 0,-486.85 -92.37,-944.27 -276.95,-1372.44 -184.75,-428 -436.55,-801.6 -755.59,-1120.63 -318.86,-318.86 -692.46,-570.67 -1120.46,-755.41 -428.17,-184.75 -885.59,-276.95 -1372.44,-276.95 -486.85,0 -944.44,92.2 -1372.44,276.95 -428.17,184.75 -801.6,436.55 -1120.63,755.41 -319.03,319.03 -570.84,692.63 -755.41,1120.63 -184.75,428.17 -277.12,885.59 -277.12,1372.44zm13724.21 -8410.82l4432.07 0 4381.78 6446.68 4356.46 -6446.68 4432.07 0 0 16796.5 -5363.85 0 0 -6043.65 -3424.68 5036.44 -3450 -5036.44 0 6043.65 -5363.85 0 0 -16796.5zm32434.56 6396.21c0,1158.44 -201.34,2144.79 -604.37,2958.88 -402.85,814.26 -952.65,1473.19 -1649.39,1976.8 -696.74,503.78 -1511,873.11 -2442.61,1108.15 -931.78,235.04 -1934.89,352.56 -3009.34,352.56l0 4003.9 -5363.85 0 0 -16796.5 5363.85 0c1074.45,0 2077.56,117.52 3009.34,352.56 931.61,235.04 1745.87,604.37 2442.61,1107.97 696.74,503.61 1246.54,1162.54 1649.39,1976.8 403.02,814.26 604.37,1800.61 604.37,2958.88zm-7705.7 1863.56l226.66 0c705.12,0 1213.01,-163.71 1523.49,-491.12 310.65,-327.41 465.98,-784.84 465.98,-1372.44 0,-587.6 -155.33,-1045.02 -465.98,-1372.44 -310.48,-327.24 -818.37,-490.95 -1523.49,-490.95l-226.66 0 0 3726.95zm11936.43 -8259.77l4029.22 0 6371.07 16796.5 -5288.24 0 -554.07 -1511 -5086.73 0 -554.07 1511 -5288.24 0 6371.07 -16796.5zm3147.73 11583.87l-1133.12 -2946.39 -1133.29 2946.39 2266.41 0zm7630.09 -11583.87l5792.02 0c1074.45,0 2069.01,142.67 2984.02,428 915.02,285.5 1708.23,705.12 2379.66,1259.19 671.59,554.07 1196.24,1238.15 1573.95,2052.41 377.71,814.09 566.56,1750.15 566.56,2807.83 0,839.41 -117.52,1552.74 -352.56,2140.34 -235.04,587.6 -495.23,1074.45 -780.56,1460.71 -335.8,436.38 -713.5,805.71 -1133.29,1107.97l3147.9 5540.04 -6295.63 0 -2518.22 -4255.7 0 4255.7 -5363.85 0 0 -16796.5zm5363.85 8259.77l276.95 0c638.06,0 1179.48,-142.67 1624.24,-428.17 444.93,-285.33 667.49,-763.8 667.49,-1435.39 0,-671.42 -222.55,-1149.89 -667.49,-1435.39 -444.76,-285.33 -986.18,-428 -1624.24,-428l-276.95 0 0 3726.95zm9317.29 -8259.77l9896.68 0 0 4406.92 -4532.83 0 0 1863.39 4457.22 0 0 4180.27 -4457.22 0 0 1939 4709.02 0 0 4406.92 -10072.87 0 0 -16796.5z"/>
   <g>
    <path class="fil3" d="M53161.58 37818.26c0,-1023.98 230.93,-1884.43 692.46,-2581.17 461.7,-696.74 1070.34,-1288.45 1825.75,-1775.29 -386.09,-419.79 -705.12,-906.63 -956.93,-1460.54 -251.8,-554.07 -377.71,-1158.44 -377.71,-1813.1 0,-705.12 134.28,-1359.95 402.85,-1964.32 268.74,-604.37 638.06,-1124.74 1108.15,-1561.29 470.08,-436.55 1023.98,-776.45 1661.88,-1019.88 638.06,-243.42 1326.42,-365.05 2065.07,-365.05 822.64,0 1569.67,125.9 2241.1,377.71 671.59,251.8 1246.54,600.09 1725,1045.02 478.46,444.93 843.68,973.69 1095.49,1586.44 251.8,612.75 377.71,1280.06 377.71,2001.95 0,856.17 -226.66,1603.37 -679.98,2241.27 -453.15,637.89 -998.84,1191.97 -1636.73,1662.05l2291.56 1913.85c201.51,-201.51 381.98,-394.47 541.41,-579.22 159.43,-184.75 297.99,-344.18 415.51,-478.46 134.28,-167.81 251.8,-319.03 352.56,-453.32l3374.39 2870.78c-721.89,1007.39 -1569.67,1913.85 -2543.36,2719.73 -419.79,335.8 -885.59,667.32 -1397.58,994.73 -512.16,327.24 -1074.45,616.85 -1687.36,868.66 -612.75,251.98 -1271.68,457.59 -1976.8,617.02 -704.95,159.43 -1452.15,239.32 -2241.1,239.32 -1158.44,0 -2157.27,-130.18 -2996.68,-390.37 -839.41,-260.19 -1531.87,-617.02 -2077.56,-1070.34 -545.69,-453.15 -948.54,-990.45 -1208.73,-1611.58 -260.19,-621.13 -390.37,-1292.72 -390.37,-2014.61zm6799.24 831.02c251.8,0 507.89,-21.04 768.07,-62.95 260.19,-41.91 507.71,-104.86 742.76,-188.85l-2442.61 -2064.9c-419.62,318.86 -629.51,696.74 -629.51,1133.12 0,403.02 159.43,701.02 478.46,893.97 318.86,193.13 679.8,289.61 1082.83,289.61zm-1233.88 -8536.73c0,235.04 54.57,457.42 163.54,667.32 109.14,209.89 323.31,457.42 642.17,742.93 386.26,-235.04 663.21,-457.59 831.02,-667.32 167.98,-209.89 251.8,-457.59 251.8,-742.93 0,-285.33 -83.82,-511.99 -251.8,-679.98 -167.81,-167.81 -394.47,-251.8 -679.8,-251.8 -285.5,0 -516.27,88.1 -692.63,264.46 -176.19,176.19 -264.29,398.75 -264.29,667.32z"/>
    <path class="fil2" d="M86236.6 32076.7c0,1158.44 -201.34,2144.79 -604.37,2958.88 -402.85,814.26 -952.65,1473.19 -1649.39,1976.8 -696.74,503.78 -1511,873.11 -2442.61,1108.15 -931.78,235.04 -1934.89,352.56 -3009.34,352.56l0 4003.9 -5363.85 0 0 -16796.5 5363.85 0c1074.45,0 2077.56,117.52 3009.34,352.56 931.61,235.04 1745.87,604.37 2442.61,1107.97 696.74,503.61 1246.54,1162.54 1649.39,1976.8 403.02,814.26 604.37,1800.61 604.37,2958.88zm-7705.7 1863.56l226.66 0c705.12,0 1213.01,-163.71 1523.49,-491.12 310.65,-327.41 465.98,-784.84 465.98,-1372.44 0,-587.6 -155.33,-1045.02 -465.98,-1372.44 -310.48,-327.24 -818.37,-490.95 -1523.49,-490.95l-226.66 0 0 3726.95zm8587.02 151.05c0,-1208.73 230.93,-2350.4 692.46,-3424.68 461.7,-1074.45 1091.38,-2010.5 1888.71,-2807.83 797.5,-797.5 1733.38,-1427.01 2807.83,-1888.71 1074.45,-461.7 2216.12,-692.46 3424.85,-692.46 1208.73,0 2350.23,230.76 3424.68,692.46 1074.45,461.7 2010.5,1091.21 2807.83,1888.71 797.5,797.32 1427.01,1733.38 1888.71,2807.83 461.7,1074.28 692.46,2215.95 692.46,3424.68 0,1208.73 -230.76,2350.4 -692.46,3424.85 -461.7,1074.45 -1091.21,2010.33 -1888.71,2807.83 -797.32,797.32 -1733.38,1426.84 -2807.83,1888.53 -1074.45,461.7 -2215.95,692.63 -3424.68,692.63 -1208.73,0 -2350.4,-230.93 -3424.85,-692.63 -1074.45,-461.7 -2010.33,-1091.21 -2807.83,-1888.53 -797.32,-797.5 -1427.01,-1733.38 -1888.71,-2807.83 -461.53,-1074.45 -692.46,-2216.12 -692.46,-3424.85zm5288.24 0c0,486.85 92.37,944.27 277.12,1372.44 184.58,428.17 436.38,801.6 755.41,1120.63 319.03,319.03 692.46,570.84 1120.63,755.41 428,184.75 885.59,276.95 1372.44,276.95 486.85,0 944.27,-92.2 1372.44,-276.95 428,-184.58 801.6,-436.38 1120.46,-755.41 319.03,-319.03 570.84,-692.46 755.59,-1120.63 184.58,-428.17 276.95,-885.59 276.95,-1372.44 0,-486.85 -92.37,-944.27 -276.95,-1372.44 -184.75,-428 -436.55,-801.6 -755.59,-1120.63 -318.86,-318.86 -692.46,-570.67 -1120.46,-755.41 -428.17,-184.75 -885.59,-276.95 -1372.44,-276.95 -486.85,0 -944.44,92.2 -1372.44,276.95 -428.17,184.75 -801.6,436.55 -1120.63,755.41 -319.03,319.03 -570.84,692.63 -755.41,1120.63 -184.75,428.17 -277.12,885.59 -277.12,1372.44zm20599.06 8813.85c-1057.68,0 -2014.61,-134.46 -2870.78,-403.02 -856.17,-268.57 -1586.44,-671.42 -2190.97,-1208.73 -604.37,-537.14 -1070.17,-1217.11 -1397.58,-2039.75 -327.24,-822.64 -490.95,-1787.95 -490.95,-2895.92l0 -10677.24 5363.68 0 0 10450.58c0,587.6 121.8,1036.64 365.22,1347.29 243.42,310.48 650.55,465.8 1221.39,465.8 570.67,0 977.8,-155.33 1221.22,-465.8 243.42,-310.65 365.22,-759.69 365.22,-1347.29l0 -10450.58 5389 0 0 10677.24c0,1107.97 -163.71,2073.28 -491.12,2895.92 -327.24,822.64 -797.32,1502.62 -1410.24,2039.75 -612.75,537.31 -1347.12,940.16 -2203.29,1208.73 -856.34,268.57 -1813.1,403.02 -2870.78,403.02zm21732.18 -10828.46c0,1158.44 -201.34,2144.79 -604.37,2958.88 -402.85,814.26 -952.65,1473.19 -1649.39,1976.8 -696.74,503.78 -1511,873.11 -2442.61,1108.15 -931.78,235.04 -1934.89,352.56 -3009.34,352.56l0 4003.9 -5363.85 0 0 -16796.5 5363.85 0c1074.45,0 2077.56,117.52 3009.34,352.56 931.61,235.04 1745.87,604.37 2442.61,1107.97 696.74,503.61 1246.54,1162.54 1649.39,1976.8 403.02,814.26 604.37,1800.61 604.37,2958.88zm-7705.7 1863.56l226.66 0c705.12,0 1213.01,-163.71 1523.49,-491.12 310.65,-327.41 465.98,-784.84 465.98,-1372.44 0,-587.6 -155.33,-1045.02 -465.98,-1372.44 -310.48,-327.24 -818.37,-490.95 -1523.49,-490.95l-226.66 0 0 3726.95zm8964.73 -8259.77l9896.68 0 0 4406.92 -4532.83 0 0 1863.39 4457.22 0 0 4180.27 -4457.22 0 0 1939 4709.02 0 0 4406.92 -10072.87 0 0 -16796.5z"/>
   </g>
  </g>
 </g>
</svg>
